<svg width="15" height="15" fill="none" xmlns="http://www.w3.org/2000/svg"><g clip-path="url('#clip0_21779_60')" fill="#E4DFD3"><path d="M9.484.02c-.731.04-1.388.21-2.07.535a5.255 5.255 0 0 0-1.101.704 6.6 6.6 0 0 0-.58.584 5.506 5.506 0 0 0-1.195 2.755 4.12 4.12 0 0 0-.038.666c0 .384.017.591.079.93A5.59 5.59 0 0 0 5.592 8.5c.603.798 1.465 1.401 2.489 1.743a5.2 5.2 0 0 0 1.152.244c.175.018.727.02.895.004a5.223 5.223 0 0 0 1.936-.554A4.868 4.868 0 0 0 14 8.237a5.511 5.511 0 0 0 .873-2.381 5.268 5.268 0 0 0-.438-2.771c-.42-.937-1.016-1.653-1.814-2.177A5.82 5.82 0 0 0 10.946.17 5.157 5.157 0 0 0 9.484.02Zm.492.874c.454.032.906.136 1.33.308.962.39 1.651.983 2.134 1.834.498.879.689 1.818.567 2.791-.118.947-.608 1.942-1.27 2.581a4.18 4.18 0 0 1-1.108.77A4.293 4.293 0 0 1 10 9.627a6.048 6.048 0 0 1-.746-.013 4.376 4.376 0 0 1-1.393-.394 4.177 4.177 0 0 1-1.61-1.292 4.556 4.556 0 0 1-.862-2.137c-.1-.82.033-1.63.39-2.398.454-.975 1.147-1.665 2.112-2.103A4.36 4.36 0 0 1 9.467.891c.092-.006.401-.005.509.003Z"/><path d="M9.508 2.091a2.764 2.764 0 0 0-1.087.31c-.834.437-1.435 1.28-1.615 2.267-.041.226-.05.338-.05.625 0 .206.004.294.015.386.096.777.411 1.444.932 1.965.452.454.99.73 1.604.823.149.023.466.03.617.017a2.824 2.824 0 0 0 1.656-.742 3.203 3.203 0 0 0 .85-1.28l.013-.042-.045-.016a226.95 226.95 0 0 0-.882-.307c-.012-.002-.023.017-.055.096-.114.285-.269.52-.48.733-.475.476-1.103.663-1.712.509-.562-.143-1.049-.57-1.307-1.147a2.331 2.331 0 0 1-.21-1c0-.4.08-.743.256-1.089a2.11 2.11 0 0 1 .709-.808 1.75 1.75 0 0 1 1.73-.126c.196.093.361.213.53.382.123.124.235.264.307.386l.04.067.026-.015.418-.244c.217-.125.4-.232.408-.238.012-.008.007-.02-.05-.112-.444-.716-1.135-1.206-1.914-1.355a2.498 2.498 0 0 0-.478-.046l-.226.001Z"/></g><defs><clipPath id="clip0_21779_60"><path fill="#fff" transform="translate(0 .002)" d="M0 0h15v15H0z"/></clipPath></defs></svg>